<?xml version="1.0" standalone="no"?><!DOCTYPE svg PUBLIC "-//W3C//DTD SVG 1.1//EN" "http://www.w3.org/Graphics/SVG/1.1/DTD/svg11.dtd"><svg t="1538648985909" class="icon" style="" viewBox="0 0 1024 1024" version="1.1" xmlns="http://www.w3.org/2000/svg" p-id="10878" xmlns:xlink="http://www.w3.org/1999/xlink" width="200" height="200"><defs><style type="text/css"></style></defs><path d="M940.8 268.8H569.6C550.4 147.2 435.2 57.6 288 57.6S19.2 147.2 0 268.8v614.4c0 44.8 38.4 83.2 83.2 83.2h857.6c44.8 0 83.2-38.4 83.2-83.2V352c0-44.8-38.4-83.2-83.2-83.2zM64 268.8c19.2-89.6 108.8-153.6 224-153.6s204.8 64 224 153.6H64z m595.2 416c12.8 0 25.6 12.8 25.6 25.6s-12.8 25.6-25.6 25.6h-128V832c0 12.8-12.8 25.6-25.6 25.6s-25.6-12.8-25.6-25.6v-89.6h-128c-12.8 0-25.6-12.8-25.6-25.6s12.8-25.6 25.6-25.6h128v-128h-128c-12.8 0-25.6-12.8-25.6-25.6s12.8-25.6 25.6-25.6h70.4L345.6 422.4c-12.8-12.8-12.8-32 0-38.4 6.4-12.8 25.6-12.8 38.4 0l121.6 121.6H512L633.6 384c12.8-12.8 25.6-12.8 38.4 0 12.8 12.8 12.8 25.6 0 38.4L588.8 505.6h70.4c12.8 0 25.6 12.8 25.6 25.6s-12.8 25.6-25.6 25.6h-128v121.6h128z" fill="#5892F6" p-id="10879"></path></svg>